<mxfile host="app.diagrams.net" modified="2023-08-04T03:17:32.229Z" agent="Mozilla/5.0 (Macintosh; Intel Mac OS X 10_15_7) AppleWebKit/537.36 (KHTML, like Gecko) Chrome/115.0.0.0 Safari/537.36" etag="655XuQlU-5Iyu0rwFoSa" version="21.6.6" type="device">
  <diagram name="Page-1" id="qquHVE8NP979ar114yhp">
    <mxGraphModel dx="954" dy="610" grid="1" gridSize="10" guides="1" tooltips="1" connect="1" arrows="1" fold="1" page="1" pageScale="1" pageWidth="850" pageHeight="1100" math="0" shadow="0">
      <root>
        <mxCell id="0" />
        <mxCell id="1" parent="0" />
        <mxCell id="U3LHHgSFKdcdHxN80uQD-1" value="AWS Cloud" style="sketch=0;outlineConnect=0;gradientColor=none;html=1;whiteSpace=wrap;fontSize=12;fontStyle=0;shape=mxgraph.aws4.group;grIcon=mxgraph.aws4.group_aws_cloud;strokeColor=#AAB7B8;fillColor=none;verticalAlign=top;align=left;spacingLeft=30;fontColor=#AAB7B8;dashed=0;" parent="1" vertex="1">
          <mxGeometry x="184" y="240" width="483" height="570" as="geometry" />
        </mxCell>
        <mxCell id="U3LHHgSFKdcdHxN80uQD-2" value="" style="shape=image;html=1;verticalAlign=top;verticalLabelPosition=bottom;labelBackgroundColor=#ffffff;imageAspect=0;aspect=fixed;image=https://cdn4.iconfinder.com/data/icons/socialcones/508/Telegram-128.png" parent="1" vertex="1">
          <mxGeometry x="60" y="466" width="60" height="60" as="geometry" />
        </mxCell>
        <mxCell id="U3LHHgSFKdcdHxN80uQD-3" value="" style="outlineConnect=0;dashed=0;verticalLabelPosition=bottom;verticalAlign=top;align=center;html=1;shape=mxgraph.aws3.dynamo_db;fillColor=#2E73B8;gradientColor=none;" parent="1" vertex="1">
          <mxGeometry x="530" y="617" width="72" height="81" as="geometry" />
        </mxCell>
        <mxCell id="U3LHHgSFKdcdHxN80uQD-4" value="" style="outlineConnect=0;dashed=0;verticalLabelPosition=bottom;verticalAlign=top;align=center;html=1;shape=mxgraph.aws3.lambda;fillColor=#F58534;gradientColor=none;" parent="1" vertex="1">
          <mxGeometry x="386.75" y="450" width="76.5" height="93" as="geometry" />
        </mxCell>
        <mxCell id="U3LHHgSFKdcdHxN80uQD-5" value="" style="sketch=0;points=[[0,0,0],[0.25,0,0],[0.5,0,0],[0.75,0,0],[1,0,0],[0,1,0],[0.25,1,0],[0.5,1,0],[0.75,1,0],[1,1,0],[0,0.25,0],[0,0.5,0],[0,0.75,0],[1,0.25,0],[1,0.5,0],[1,0.75,0]];points=[[0,0,0],[0.25,0,0],[0.5,0,0],[0.75,0,0],[1,0,0],[0,1,0],[0.25,1,0],[0.5,1,0],[0.75,1,0],[1,1,0],[0,0.25,0],[0,0.5,0],[0,0.75,0],[1,0.25,0],[1,0.5,0],[1,0.75,0]];outlineConnect=0;fontColor=#232F3E;gradientColor=#F34482;gradientDirection=north;fillColor=#BC1356;strokeColor=#ffffff;dashed=0;verticalLabelPosition=bottom;verticalAlign=top;align=center;html=1;fontSize=12;fontStyle=0;aspect=fixed;shape=mxgraph.aws4.resourceIcon;resIcon=mxgraph.aws4.systems_manager;" parent="1" vertex="1">
          <mxGeometry x="280" y="617" width="78" height="78" as="geometry" />
        </mxCell>
        <mxCell id="U3LHHgSFKdcdHxN80uQD-6" value="" style="dashed=0;outlineConnect=0;html=1;align=center;labelPosition=center;verticalLabelPosition=bottom;verticalAlign=top;shape=mxgraph.weblogos.github" parent="1" vertex="1">
          <mxGeometry x="700" y="459" width="75" height="75" as="geometry" />
        </mxCell>
        <mxCell id="U3LHHgSFKdcdHxN80uQD-17" style="edgeStyle=orthogonalEdgeStyle;rounded=0;orthogonalLoop=1;jettySize=auto;html=1;exitX=0.5;exitY=1;exitDx=0;exitDy=0;exitPerimeter=0;entryX=0.5;entryY=0;entryDx=0;entryDy=0;entryPerimeter=0;" parent="1" source="U3LHHgSFKdcdHxN80uQD-7" target="U3LHHgSFKdcdHxN80uQD-4" edge="1">
          <mxGeometry relative="1" as="geometry" />
        </mxCell>
        <mxCell id="U3LHHgSFKdcdHxN80uQD-18" value="set_event_schedule()&lt;br&gt;set_post_event_schedule&lt;br&gt;create_cloudwatch_event()&lt;br&gt;extend_cloudwatch_event()&lt;br&gt;delete_cloudwatch_event()&lt;br&gt;remove_lambda_trigger()" style="edgeLabel;html=1;align=center;verticalAlign=middle;resizable=0;points=[];" parent="U3LHHgSFKdcdHxN80uQD-17" vertex="1" connectable="0">
          <mxGeometry x="0.0112" y="2" relative="1" as="geometry">
            <mxPoint x="103" y="-9" as="offset" />
          </mxGeometry>
        </mxCell>
        <mxCell id="U3LHHgSFKdcdHxN80uQD-7" value="" style="sketch=0;points=[[0,0,0],[0.25,0,0],[0.5,0,0],[0.75,0,0],[1,0,0],[0,1,0],[0.25,1,0],[0.5,1,0],[0.75,1,0],[1,1,0],[0,0.25,0],[0,0.5,0],[0,0.75,0],[1,0.25,0],[1,0.5,0],[1,0.75,0]];outlineConnect=0;fontColor=#232F3E;gradientColor=#FF4F8B;gradientDirection=north;fillColor=#BC1356;strokeColor=#ffffff;dashed=0;verticalLabelPosition=bottom;verticalAlign=top;align=center;html=1;fontSize=12;fontStyle=0;aspect=fixed;shape=mxgraph.aws4.resourceIcon;resIcon=mxgraph.aws4.eventbridge;" parent="1" vertex="1">
          <mxGeometry x="385.25" y="310" width="78" height="78" as="geometry" />
        </mxCell>
        <mxCell id="U3LHHgSFKdcdHxN80uQD-8" value="" style="endArrow=classic;startArrow=classic;html=1;rounded=0;exitX=1;exitY=0.5;exitDx=0;exitDy=0;exitPerimeter=0;" parent="1" source="U3LHHgSFKdcdHxN80uQD-4" target="U3LHHgSFKdcdHxN80uQD-6" edge="1">
          <mxGeometry width="50" height="50" relative="1" as="geometry">
            <mxPoint x="400" y="590" as="sourcePoint" />
            <mxPoint x="450" y="540" as="targetPoint" />
          </mxGeometry>
        </mxCell>
        <mxCell id="U3LHHgSFKdcdHxN80uQD-9" value="fetch_github_readme_content()&lt;br&gt;extract_table_data()&lt;br&gt;" style="edgeLabel;html=1;align=center;verticalAlign=middle;resizable=0;points=[];" parent="U3LHHgSFKdcdHxN80uQD-8" vertex="1" connectable="0">
          <mxGeometry x="0.0848" y="2" relative="1" as="geometry">
            <mxPoint x="-21" y="16" as="offset" />
          </mxGeometry>
        </mxCell>
        <mxCell id="U3LHHgSFKdcdHxN80uQD-12" value="" style="endArrow=classic;startArrow=classic;html=1;rounded=0;exitX=0.5;exitY=1;exitDx=0;exitDy=0;exitPerimeter=0;" parent="1" source="U3LHHgSFKdcdHxN80uQD-4" target="U3LHHgSFKdcdHxN80uQD-3" edge="1">
          <mxGeometry width="50" height="50" relative="1" as="geometry">
            <mxPoint x="130" y="506" as="sourcePoint" />
            <mxPoint x="397" y="506" as="targetPoint" />
          </mxGeometry>
        </mxCell>
        <mxCell id="U3LHHgSFKdcdHxN80uQD-13" value="put and delete event and message id" style="edgeLabel;html=1;align=center;verticalAlign=middle;resizable=0;points=[];" parent="U3LHHgSFKdcdHxN80uQD-12" vertex="1" connectable="0">
          <mxGeometry x="0.0025" y="-2" relative="1" as="geometry">
            <mxPoint x="83" y="-17" as="offset" />
          </mxGeometry>
        </mxCell>
        <mxCell id="U3LHHgSFKdcdHxN80uQD-14" value="" style="endArrow=classic;startArrow=classic;html=1;rounded=0;exitX=0.5;exitY=1;exitDx=0;exitDy=0;exitPerimeter=0;entryX=0.5;entryY=0;entryDx=0;entryDy=0;entryPerimeter=0;" parent="1" source="U3LHHgSFKdcdHxN80uQD-4" target="U3LHHgSFKdcdHxN80uQD-5" edge="1">
          <mxGeometry width="50" height="50" relative="1" as="geometry">
            <mxPoint x="435" y="553" as="sourcePoint" />
            <mxPoint x="530" y="638" as="targetPoint" />
          </mxGeometry>
        </mxCell>
        <mxCell id="U3LHHgSFKdcdHxN80uQD-15" value="get_parameters_from_ssm()&lt;br&gt;" style="edgeLabel;html=1;align=center;verticalAlign=middle;resizable=0;points=[];" parent="U3LHHgSFKdcdHxN80uQD-14" vertex="1" connectable="0">
          <mxGeometry x="0.0025" y="-2" relative="1" as="geometry">
            <mxPoint x="-81" y="1" as="offset" />
          </mxGeometry>
        </mxCell>
        <mxCell id="U3LHHgSFKdcdHxN80uQD-21" value="" style="endArrow=classic;html=1;rounded=0;entryX=1;entryY=0.5;entryDx=0;entryDy=0;exitX=0;exitY=0.5;exitDx=0;exitDy=0;exitPerimeter=0;" parent="1" source="U3LHHgSFKdcdHxN80uQD-4" target="U3LHHgSFKdcdHxN80uQD-2" edge="1">
          <mxGeometry width="50" height="50" relative="1" as="geometry">
            <mxPoint x="400" y="590" as="sourcePoint" />
            <mxPoint x="450" y="540" as="targetPoint" />
          </mxGeometry>
        </mxCell>
        <mxCell id="U3LHHgSFKdcdHxN80uQD-22" value="send_pre_event_message()&lt;br&gt;send_post_event_message()&lt;br&gt;send_telegram_message()" style="edgeLabel;html=1;align=center;verticalAlign=middle;resizable=0;points=[];" parent="U3LHHgSFKdcdHxN80uQD-21" vertex="1" connectable="0">
          <mxGeometry x="-0.1521" y="-1" relative="1" as="geometry">
            <mxPoint x="6" y="25" as="offset" />
          </mxGeometry>
        </mxCell>
      </root>
    </mxGraphModel>
  </diagram>
</mxfile>
